<svg xmlns="http://www.w3.org/2000/svg" xmlns:xlink="http://www.w3.org/1999/xlink" xmlns:lucid="lucid" width="1226" height="666"><g transform="translate(-305 -200)" lucid:page-tab-id="X0t~GQrzL61w"><path d="M385 295h1090v10H375v-20h10z" fill="#ef8d22"/><path d="M385 285.13h-10V280h10zM1480 305h-5.13v-10h5.13z" fill="#ef8d22"/><path d="M400 300c0 11.05-8.95 20-20 20s-20-8.95-20-20 8.95-20 20-20 20 8.95 20 20zM900 300c0 11.05-8.95 20-20 20s-20-8.95-20-20 8.95-20 20-20 20 8.95 20 20zM1420 300c0 11.05-8.95 20-20 20s-20-8.95-20-20 8.95-20 20-20 20 8.95 20 20z" stroke="#000" stroke-width="9" fill="#fff"/><path d="M325 220h110v60H325z" stroke="#000" stroke-opacity="0" stroke-width="9" fill="#fff" fill-opacity="0"/><use xlink:href="#a" transform="matrix(1,0,0,1,330,225) translate(0.09999999999999432 30.025)"/><path d="M825 220h110v60H825z" stroke="#000" stroke-opacity="0" stroke-width="9" fill="#fff" fill-opacity="0"/><use xlink:href="#b" transform="matrix(1,0,0,1,830,225) translate(-1.375000000000007 28.6)"/><path d="M1345 220h110v60h-110z" stroke="#000" stroke-opacity="0" stroke-width="9" fill="#fff" fill-opacity="0"/><use xlink:href="#c" transform="matrix(1,0,0,1,1350,225) translate(-18.35000000000001 28.6)"/><path d="M574.08 260.5H460.5v-1h113.58zm209.54 0h-97.7v-1h97.7zM460.5 260.5h-.5v-1h.5zM798.38 260l-14.26 4.64v-9.28z"/><path d="M800 260l-16.38 5.32v-10.64zm-15.38 3.95l12.14-3.95-12.14-3.95z"/><use xlink:href="#d" transform="matrix(1,0,0,1,574.075,249.2) translate(0 14.4)"/><path d="M1084.08 260.5H970.5v-1h113.58zm209.54 0h-97.7v-1h97.7zM970.5 260.5h-.5v-1h.5zM1308.38 260l-14.26 4.64v-9.28z"/><path d="M1310 260l-16.38 5.32v-10.64zm-15.38 3.95l12.14-3.95-12.14-3.95z"/><use xlink:href="#d" transform="matrix(1,0,0,1,1084.075,249.2) translate(0 14.4)"/><path d="M574.08 340.5h-97.7v-1h97.7zm225.42 0H685.92v-1H799.5zM475.88 344.64L461.62 340l14.26-4.64z"/><path d="M476.38 345.32L460 340l16.38-5.32zM463.24 340l12.14 3.95v-7.9zM800 340.5h-.5v-1h.5z"/><use xlink:href="#d" transform="matrix(1,0,0,1,574.075,329.2) translate(0 14.4)"/><path d="M1094.08 340.5h-97.7v-1h97.7zm225.42 0h-113.58v-1h113.58zM995.88 344.64L981.62 340l14.26-4.64z"/><path d="M996.38 345.32L980 340l16.38-5.32zM983.24 340l12.14 3.95v-7.9zM1320 340.5h-.5v-1h.5z"/><use xlink:href="#d" transform="matrix(1,0,0,1,1094.075,329.2) translate(0 14.4)"/><path d="M385 535h1090v10H375v-20h10z" fill="#19967d"/><path d="M385 525.13h-10V520h10zM1480 545h-5.13v-10h5.13z" fill="#19967d"/><path d="M400 540c0 11.05-8.95 20-20 20s-20-8.95-20-20 8.95-20 20-20 20 8.95 20 20zM900 540c0 11.05-8.95 20-20 20s-20-8.95-20-20 8.95-20 20-20 20 8.95 20 20zM1420 540c0 11.05-8.95 20-20 20s-20-8.95-20-20 8.95-20 20-20 20 8.95 20 20z" stroke="#000" stroke-width="9" fill="#fff"/><path d="M325 460h110v60H325z" stroke="#000" stroke-opacity="0" stroke-width="9" fill="#fff" fill-opacity="0"/><use xlink:href="#e" transform="matrix(1,0,0,1,330,465) translate(14.074999999999996 30.025)"/><path d="M825 460h110v60H825z" stroke="#000" stroke-opacity="0" stroke-width="9" fill="#fff" fill-opacity="0"/><use xlink:href="#b" transform="matrix(1,0,0,1,830,465) translate(-1.375000000000007 28.6)"/><path d="M1345 460h110v60h-110z" stroke="#000" stroke-opacity="0" stroke-width="9" fill="#fff" fill-opacity="0"/><use xlink:href="#f" transform="matrix(1,0,0,1,1350,465) translate(-7.82500000000001 28.6)"/><path d="M574.08 500.5H460.5v-1h113.58zm209.54 0h-97.7v-1h97.7zM460.5 500.5h-.5v-1h.5zM798.38 500l-14.26 4.64v-9.28z"/><path d="M800 500l-16.38 5.32v-10.64zm-15.38 3.95l12.14-3.95-12.14-3.95z"/><use xlink:href="#d" transform="matrix(1,0,0,1,574.075,489.2) translate(0 14.4)"/><path d="M1084.08 500.5H970.5v-1h113.58zm209.54 0h-97.7v-1h97.7zM970.5 500.5h-.5v-1h.5zM1308.38 500l-14.26 4.64v-9.28z"/><path d="M1310 500l-16.38 5.32v-10.64zm-15.38 3.95l12.14-3.95-12.14-3.95z"/><use xlink:href="#d" transform="matrix(1,0,0,1,1084.075,489.2) translate(0 14.4)"/><path d="M574.08 580.5h-97.7v-1h97.7zm225.42 0H685.92v-1H799.5zM475.88 584.64L461.62 580l14.26-4.64z"/><path d="M476.38 585.32L460 580l16.38-5.32zM463.24 580l12.14 3.95v-7.9zM800 580.5h-.5v-1h.5z"/><use xlink:href="#d" transform="matrix(1,0,0,1,574.075,569.2) translate(0 14.4)"/><path d="M1094.08 580.5h-97.7v-1h97.7zm225.42 0h-113.58v-1h113.58zM995.88 584.64L981.62 580l14.26-4.64z"/><path d="M996.38 585.32L980 580l16.38-5.32zM983.24 580l12.14 3.95v-7.9zM1320 580.5h-.5v-1h.5z"/><use xlink:href="#d" transform="matrix(1,0,0,1,1094.075,569.2) translate(0 14.4)"/><path d="M1470 805h-290v.67H880v-10h290V795h300z" fill="#ffdf71"/><path d="M880.13 805.67H875v-10h5.13zM1475 805h-5.13v-10h5.13z" fill="#ffdf71"/><path d="M895 800c0 11.05-8.95 20-20 20s-20-8.95-20-20 8.95-20 20-20 20 8.95 20 20zM1415 800c0 11.05-8.95 20-20 20s-20-8.95-20-20 8.95-20 20-20 20 8.95 20 20z" stroke="#000" stroke-width="9" fill="#fff"/><path d="M820 720h110v60H820z" stroke="#000" stroke-opacity="0" stroke-width="9" fill="#fff" fill-opacity="0"/><use xlink:href="#b" transform="matrix(1,0,0,1,825,725) translate(-1.375000000000007 28.6)"/><path d="M1340 720h110v60h-110z" stroke="#000" stroke-opacity="0" stroke-width="9" fill="#fff" fill-opacity="0"/><use xlink:href="#g" transform="matrix(1,0,0,1,1345,725) translate(29.525 17.525)"/><use xlink:href="#h" transform="matrix(1,0,0,1,1345,725) translate(14.074999999999996 39.125)"/><path d="M1079.08 760.5H965.5v-1h113.58zm209.54 0h-97.7v-1h97.7zM965.5 760.5h-.5v-1h.5zM1303.38 760l-14.26 4.64v-9.28z"/><path d="M1305 760l-16.38 5.32v-10.64zm-15.38 3.95l12.14-3.95-12.14-3.95z"/><use xlink:href="#d" transform="matrix(1,0,0,1,1079.075,749.2) translate(0 14.4)"/><path d="M1089.08 840.5h-97.7v-1h97.7zm225.42 0h-113.58v-1h113.58zM990.88 844.64L976.62 840l14.26-4.64z"/><path d="M991.38 845.32L975 840l16.38-5.32zM978.24 840l12.14 3.95v-7.9zM1315 840.5h-.5v-1h.5z"/><use xlink:href="#d" transform="matrix(1,0,0,1,1089.075,829.2) translate(0 14.4)"/><path d="M788.57 431.13l.55 3.76.74 3.86.94 4 1.16 4.17 1.42 4.36 1.7 4.55 2.02 4.82 2.4 5.1 2.86 5.46 3.37 5.83 4 6.3 4.75 6.84 5.68 7.47 6.82 8.24 8.24 9.16 5.92 6.03-3.57 3.5-6-6.12-8.38-9.3-6.96-8.4-5.8-7.64-4.88-7-4.1-6.5-3.5-6-2.93-5.64-2.5-5.3-2.1-5-1.78-4.77-1.48-4.55-1.22-4.37-.98-4.2-.78-4.08-.6-3.96-.13-1.28h5.03zM846.87 322l-5.7 5.75-17.4 17.47-6.6 7.3-5 6.02-4 5.3-3.38 4.83-2.86 4.5-2.44 4.23-2.1 4.03-1.84 3.87-1.57 3.74-1.36 3.64-1.16 3.55-.98 3.5-.8 3.46-.66 3.42-.34 2.26h-5.05l.46-3.1.7-3.63.86-3.66 1.03-3.7 1.2-3.77 1.44-3.84 1.66-3.94 1.9-4.06 2.2-4.2 2.57-4.43 2.96-4.67 3.48-5 4.17-5.47 5.1-6.17 6.76-7.48 17.5-17.56 5.7-5.75zM850.07 321.15l-7.7-5.16 11.8-9.28z" fill="#999"/><path d="M851.54 325.15l-13.42-9L858.67 300zm-4.92-9.32l2 1.33 1.04-3.72zM851.48 534.42l-13.52-6.5 6.4-6.7z" fill="#999"/><path d="M857.33 540l-23.55-11.32L844.93 517zm-15.2-12.84l3.5 1.67-1.84-3.4z" fill="#999"/><use xlink:href="#i" transform="matrix(1,0,0,1,702.0455184223664,408.8827795632195) translate(0 14.4)"/><use xlink:href="#j" transform="matrix(1,0,0,1,702.0455184223664,408.8827795632195) translate(61.95 14.4)"/><use xlink:href="#k" transform="matrix(1,0,0,1,702.0455184223664,408.8827795632195) translate(130.8 14.4)"/><path d="M948.52 679.55l-5 21.3-5.87 21.04-6.77 20.83-7.7 20.7-6.55 15.6-4.6-1.94 6.5-15.52 7.63-20.5 6.7-20.63 5.82-20.84 4.95-21.1 1.5-7.83h5.08zm-9.85-274.47l7.2 30.66 5.46 28.56 4 27.14 2.75 26.03 1.6 25.1.5 24.3-.5 23.6-1.43 22.98-2.36 22.47-1.95 13.15h-5.05l2.03-13.78 2.34-22.26 1.42-22.8.48-23.38-.5-24.08-1.58-24.9-2.72-25.8-3.98-26.95-5.42-28.35-7.14-30.4-24.85-81.6 4.78-1.46zM915.28 320.55l-9 2.26 1.03-14.95z" fill="#999"/><path d="M919.23 322.13l-15.66 3.95 1.76-26.08zm-10.2-2.58l2.3-.58-2.05-3.28zM917.5 782.26l-10.14 11.05 1.7-14.9z" fill="#999"/><path d="M921.67 781.4L904 800.68l2.98-25.97zm-10.95 4.55l2.62-2.85-2.18-1z" fill="#999"/><use xlink:href="#i" transform="matrix(1,0,0,1,866.3775459018904,649.0730247834232) translate(0 14.4)"/><use xlink:href="#j" transform="matrix(1,0,0,1,866.3775459018904,649.0730247834232) translate(61.95 14.4)"/><use xlink:href="#k" transform="matrix(1,0,0,1,866.3775459018904,649.0730247834232) translate(130.8 14.4)"/><path d="M805.03 723.84l.6 5.68.82 5.56 1.04 5.46 1.24 5.33 1.44 5.2 1.64 5.04 1.82 4.9 1.97 4.68 2.1 4.47 2.22 4.22 2.27 3.94 2.3 3.64 2.28 3.3 2.22 2.93 2.13 2.57 2 2.2.53.56-3.57 3.5-.63-.63-2.13-2.37-2.26-2.73-2.35-3.1-2.4-3.47-2.42-3.8-2.37-4.12-2.3-4.4-2.2-4.67-2.04-4.87-1.9-5.08-1.7-5.24-1.5-5.4-1.3-5.52-1.08-5.66-.86-5.78-.6-5.88-.07-.92h5zm57.25-143.95l-.66.73-8.78 10.6-7.62 10.03-6.6 9.5-5.77 9.07-5 8.65-4.33 8.3-3.75 7.95-3.23 7.67-2.75 7.4-2.34 7.17-1.95 6.95-1.57 6.76-1.26 6.6-.95 6.42-.66 6.28-.1 1.76h-5.02l.13-2.18.7-6.5.97-6.63 1.3-6.8 1.63-6.95 2-7.16 2.4-7.36 2.82-7.6 3.3-7.87 3.84-8.16 4.43-8.47 5.1-8.83 5.87-9.24 6.74-9.7 7.74-10.18 8.9-10.76.75-.82z" fill="#999"/><path d="M842.66 798l-14.97.97 2.28-8.98z" fill="#999"/><path d="M850.5 800l-26.08 1.7 4-15.67zm-19.54-3.75l3.86-.25-3.27-2.06zM865.52 579.54l-6.8-6.3 13.1-7.3z" fill="#999"/><path d="M866.34 583.7l-11.84-10.98L877.33 560zm-3.4-9.96l1.76 1.63 1.63-3.5z" fill="#999"/><g><use xlink:href="#i" transform="matrix(1,0,0,1,718.7005590125834,701.7372914932861) translate(0 14.4)"/><use xlink:href="#j" transform="matrix(1,0,0,1,718.7005590125834,701.7372914932861) translate(61.95 14.4)"/><use xlink:href="#k" transform="matrix(1,0,0,1,718.7005590125834,701.7372914932861) translate(130.8 14.4)"/></g><defs><path d="M169-182c-1-43-94-46-97-3 18 66 151 10 154 114 3 95-165 93-204 36-6-8-10-19-12-30l50-8c3 46 112 56 116 5-17-69-150-10-154-114-4-87 153-88 188-35 5 8 8 18 10 28" id="l"/><path d="M114-157C55-157 80-60 75 0H25v-261h50l-1 109c12-26 28-41 61-42 86-1 58 113 63 194h-50c-7-57 23-157-34-157" id="m"/><path d="M185-48c-13 30-37 53-82 52C43 2 14-33 14-96s30-98 90-98c62 0 83 45 84 108H66c0 31 8 55 39 56 18 0 30-7 34-22zm-45-69c5-46-57-63-70-21-2 6-4 13-4 21h74" id="n"/><path d="M135-150c-39-12-60 13-60 57V0H25l-1-190h47c2 13-1 29 3 40 6-28 27-53 61-41v41" id="o"/><path d="M135-194c52 0 70 43 70 98 0 56-19 99-73 100-30 1-46-15-58-35L72 0H24l1-261h50v104c11-23 29-37 60-37zM114-30c31 0 40-27 40-66 0-37-7-63-39-63s-41 28-41 65c0 36 8 64 40 64" id="p"/><path d="M110-194c64 0 96 36 96 99 0 64-35 99-97 99-61 0-95-36-95-99 0-62 34-99 96-99zm-1 164c35 0 45-28 45-65 0-40-10-65-43-65-34 0-45 26-45 65 0 36 10 65 43 65" id="q"/><path d="M147 0L96-86 75-71V0H25v-261h50v150l67-79h53l-66 74L201 0h-54" id="r"/><g id="a"><use transform="matrix(0.05,0,0,0.05,0,0)" xlink:href="#l"/><use transform="matrix(0.05,0,0,0.05,12,0)" xlink:href="#m"/><use transform="matrix(0.05,0,0,0.05,22.950000000000003,0)" xlink:href="#n"/><use transform="matrix(0.05,0,0,0.05,32.95,0)" xlink:href="#o"/><use transform="matrix(0.05,0,0,0.05,39.95,0)" xlink:href="#p"/><use transform="matrix(0.05,0,0,0.05,50.900000000000006,0)" xlink:href="#o"/><use transform="matrix(0.05,0,0,0.05,57.900000000000006,0)" xlink:href="#q"/><use transform="matrix(0.05,0,0,0.05,68.85000000000001,0)" xlink:href="#q"/><use transform="matrix(0.05,0,0,0.05,79.80000000000001,0)" xlink:href="#r"/><use transform="matrix(0.05,0,0,0.05,89.80000000000001,0)" xlink:href="#n"/></g><path d="M182-130c37 4 62 22 62 59C244 23 116-4 24 0v-248c84 5 203-23 205 63 0 31-19 50-47 55zM76-148c40-3 101 13 101-30 0-44-60-28-101-31v61zm0 110c48-3 116 14 116-37 0-48-69-32-116-35v72" id="s"/><path d="M25-224v-37h50v37H25zM25 0v-190h50V0H25" id="t"/><path d="M14-72v-43h91v43H14" id="u"/><path d="M238-95c0 69-44 99-111 99C63 4 22-25 22-93v-155h51v151c-1 38 19 59 55 60 90 1 49-130 58-211h52v153" id="v"/><path d="M140-251c80 0 125 45 125 126 0 70-33 111-92 124 6 28 34 38 68 31l-1 36C177 83 129 55 120 2 51-6 15-50 15-125c0-81 44-126 125-126zm-1 214c52 0 73-35 73-88 0-50-21-86-72-86-52 0-73 35-73 86s22 88 72 88" id="w"/><path d="M199 0l-22-63H83L61 0H9l90-248h61L250 0h-51zm-33-102l-36-108c-10 38-24 72-36 108h72" id="x"/><path d="M230 0l2-204L168 0h-37L68-204 70 0H24v-248h70l56 185 57-185h69V0h-46" id="y"/><g id="b"><use transform="matrix(0.05,0,0,0.05,0,0)" xlink:href="#s"/><use transform="matrix(0.05,0,0,0.05,12.950000000000001,0)" xlink:href="#n"/><use transform="matrix(0.05,0,0,0.05,22.950000000000003,0)" xlink:href="#o"/><use transform="matrix(0.05,0,0,0.05,29.950000000000003,0)" xlink:href="#o"/><use transform="matrix(0.05,0,0,0.05,36.95,0)" xlink:href="#t"/><use transform="matrix(0.05,0,0,0.05,41.95,0)" xlink:href="#u"/><use transform="matrix(0.05,0,0,0.05,47.900000000000006,0)" xlink:href="#v"/><use transform="matrix(0.05,0,0,0.05,60.85,0)" xlink:href="#w"/><use transform="matrix(0.05,0,0,0.05,74.85000000000001,0)" xlink:href="#x"/><use transform="matrix(0.05,0,0,0.05,87.80000000000001,0)" xlink:href="#y"/></g><path d="M67-125c0 53 21 87 73 88 37 1 54-22 65-47l45 17C233-25 199 4 140 4 58 4 20-42 15-125 8-235 124-281 211-232c18 10 29 29 36 50l-46 12c-8-25-30-41-62-41-52 0-71 34-72 86" id="z"/><path d="M133-34C117-15 103 5 69 4 32 3 11-16 11-54c-1-60 55-63 116-61 1-26-3-47-28-47-18 1-26 9-28 27l-52-2c7-38 36-58 82-57s74 22 75 68l1 82c-1 14 12 18 25 15v27c-30 8-71 5-69-32zm-48 3c29 0 43-24 42-57-32 0-66-3-65 30 0 17 8 27 23 27" id="A"/><path d="M220-157c-53 9-28 100-34 157h-49v-107c1-27-5-49-29-50C55-147 81-57 75 0H25l-1-190h47c2 12-1 28 3 38 10-53 101-56 108 0 13-22 24-43 59-42 82 1 51 116 57 194h-49v-107c-1-25-5-48-29-50" id="B"/><path d="M135-194c53 0 70 44 70 98 0 56-19 98-73 100-31 1-45-17-59-34 3 33 2 69 2 105H25l-1-265h48c2 10 0 23 3 31 11-24 29-35 60-35zM114-30c33 0 39-31 40-66 0-38-9-64-40-64-56 0-55 130 0 130" id="C"/><path d="M88-194c31-1 46 15 58 34l-1-101h50l1 261h-48c-2-10 0-23-3-31C134-8 116 4 84 4 32 4 16-41 15-95c0-56 19-97 73-99zm17 164c33 0 40-30 41-66 1-37-9-64-41-64s-38 30-39 65c0 43 13 65 39 65" id="D"/><path d="M137-138c1-29-70-34-71-4 15 46 118 7 119 86 1 83-164 76-172 9l43-7c4 19 20 25 44 25 33 8 57-30 24-41C81-84 22-81 20-136c-2-80 154-74 161-7" id="E"/><g id="c"><use transform="matrix(0.05,0,0,0.05,0,0)" xlink:href="#z"/><use transform="matrix(0.05,0,0,0.05,12.950000000000001,0)" xlink:href="#m"/><use transform="matrix(0.05,0,0,0.05,23.900000000000002,0)" xlink:href="#A"/><use transform="matrix(0.05,0,0,0.05,33.900000000000006,0)" xlink:href="#B"/><use transform="matrix(0.05,0,0,0.05,49.900000000000006,0)" xlink:href="#C"/><use transform="matrix(0.05,0,0,0.05,60.85,0)" xlink:href="#u"/><use transform="matrix(0.05,0,0,0.05,66.80000000000001,0)" xlink:href="#D"/><use transform="matrix(0.05,0,0,0.05,77.75000000000001,0)" xlink:href="#n"/><use transform="matrix(0.05,0,0,0.05,87.75000000000001,0)" xlink:href="#u"/><use transform="matrix(0.05,0,0,0.05,93.70000000000002,0)" xlink:href="#B"/><use transform="matrix(0.05,0,0,0.05,109.7,0)" xlink:href="#A"/><use transform="matrix(0.05,0,0,0.05,119.7,0)" xlink:href="#o"/><use transform="matrix(0.05,0,0,0.05,126.7,0)" xlink:href="#E"/></g><path d="M212-179c-10-28-35-45-73-45-59 0-87 40-87 99 0 60 29 101 89 101 43 0 62-24 78-52l27 14C228-24 195 4 139 4 59 4 22-46 18-125c-6-104 99-153 187-111 19 9 31 26 39 46" id="F"/><path d="M100-194c62-1 85 37 85 99 1 63-27 99-86 99S16-35 15-95c0-66 28-99 85-99zM99-20c44 1 53-31 53-75 0-43-8-75-51-75s-53 32-53 75 10 74 51 75" id="G"/><path d="M117-194c89-4 53 116 60 194h-32v-121c0-31-8-49-39-48C34-167 62-67 57 0H25l-1-190h30c1 10-1 24 2 32 11-22 29-35 61-36" id="H"/><path d="M100-194c63 0 86 42 84 106H49c0 40 14 67 53 68 26 1 43-12 49-29l28 8c-11 28-37 45-77 45C44 4 14-33 15-96c1-61 26-98 85-98zm52 81c6-60-76-77-97-28-3 7-6 17-6 28h103" id="I"/><path d="M96-169c-40 0-48 33-48 73s9 75 48 75c24 0 41-14 43-38l32 2c-6 37-31 61-74 61-59 0-76-41-82-99-10-93 101-131 147-64 4 7 5 14 7 22l-32 3c-4-21-16-35-41-35" id="J"/><path d="M59-47c-2 24 18 29 38 22v24C64 9 27 4 27-40v-127H5v-23h24l9-43h21v43h35v23H59v120" id="K"/><path d="M135-143c-3-34-86-38-87 0 15 53 115 12 119 90S17 21 10-45l28-5c4 36 97 45 98 0-10-56-113-15-118-90-4-57 82-63 122-42 12 7 21 19 24 35" id="L"/><path d="M266 0h-40l-56-210L115 0H75L2-248h35L96-30l15-64 43-154h32l59 218 59-218h35" id="M"/><path d="M24-231v-30h32v30H24zM24 0v-190h32V0H24" id="N"/><path d="M106-169C34-169 62-67 57 0H25v-261h32l-1 103c12-21 28-36 61-36 89 0 53 116 60 194h-32v-121c2-32-8-49-39-48" id="O"/><g id="d"><use transform="matrix(0.05,0,0,0.05,0,0)" xlink:href="#F"/><use transform="matrix(0.05,0,0,0.05,12.950000000000001,0)" xlink:href="#G"/><use transform="matrix(0.05,0,0,0.05,22.950000000000003,0)" xlink:href="#H"/><use transform="matrix(0.05,0,0,0.05,32.95,0)" xlink:href="#H"/><use transform="matrix(0.05,0,0,0.05,42.95,0)" xlink:href="#I"/><use transform="matrix(0.05,0,0,0.05,52.95,0)" xlink:href="#J"/><use transform="matrix(0.05,0,0,0.05,61.95,0)" xlink:href="#K"/><use transform="matrix(0.05,0,0,0.05,66.95,0)" xlink:href="#L"/><use transform="matrix(0.05,0,0,0.05,75.95,0)" xlink:href="#M"/><use transform="matrix(0.05,0,0,0.05,92.9,0)" xlink:href="#N"/><use transform="matrix(0.05,0,0,0.05,96.85000000000001,0)" xlink:href="#K"/><use transform="matrix(0.05,0,0,0.05,101.85000000000001,0)" xlink:href="#O"/></g><path d="M85 4C-2 5 27-109 22-190h50c7 57-23 150 33 157 60-5 35-97 40-157h50l1 190h-47c-2-12 1-28-3-38-12 25-28 42-61 42" id="P"/><path d="M123 10C108 53 80 86 19 72V37c35 8 53-11 59-39L3-190h52l48 148c12-52 28-100 44-148h51" id="Q"/><g id="e"><use transform="matrix(0.05,0,0,0.05,0,0)" xlink:href="#s"/><use transform="matrix(0.05,0,0,0.05,12.950000000000001,0)" xlink:href="#n"/><use transform="matrix(0.05,0,0,0.05,22.950000000000003,0)" xlink:href="#A"/><use transform="matrix(0.05,0,0,0.05,32.95,0)" xlink:href="#P"/><use transform="matrix(0.05,0,0,0.05,43.900000000000006,0)" xlink:href="#D"/><use transform="matrix(0.05,0,0,0.05,54.85,0)" xlink:href="#o"/><use transform="matrix(0.05,0,0,0.05,61.85,0)" xlink:href="#Q"/></g><path d="M135-194c87-1 58 113 63 194h-50c-7-57 23-157-34-157-59 0-34 97-39 157H25l-1-190h47c2 12-1 28 3 38 12-26 28-41 61-42" id="R"/><path d="M115-3C79 11 28 4 28-45v-112H4v-33h27l15-45h31v45h36v33H77v99c-1 23 16 31 38 25v30" id="S"/><path d="M24 0v-248h52v208h133V0H24" id="T"/><g id="f"><use transform="matrix(0.05,0,0,0.05,0,0)" xlink:href="#l"/><use transform="matrix(0.05,0,0,0.05,12,0)" xlink:href="#A"/><use transform="matrix(0.05,0,0,0.05,22,0)" xlink:href="#t"/><use transform="matrix(0.05,0,0,0.05,27,0)" xlink:href="#R"/><use transform="matrix(0.05,0,0,0.05,37.95,0)" xlink:href="#S"/><use transform="matrix(0.05,0,0,0.05,43.900000000000006,0)" xlink:href="#u"/><use transform="matrix(0.05,0,0,0.05,49.85000000000001,0)" xlink:href="#T"/><use transform="matrix(0.05,0,0,0.05,60.80000000000001,0)" xlink:href="#A"/><use transform="matrix(0.05,0,0,0.05,70.80000000000001,0)" xlink:href="#P"/><use transform="matrix(0.05,0,0,0.05,81.75000000000001,0)" xlink:href="#o"/><use transform="matrix(0.05,0,0,0.05,88.75000000000001,0)" xlink:href="#n"/><use transform="matrix(0.05,0,0,0.05,98.75000000000001,0)" xlink:href="#R"/><use transform="matrix(0.05,0,0,0.05,109.7,0)" xlink:href="#S"/></g><path d="M176-78C186 10 51 31 16-35c-5-9-9-19-11-32l52-8c4 21 12 37 35 38 23 0 32-16 32-40v-130H75v-41h101v170" id="U"/><g id="g"><use transform="matrix(0.05,0,0,0.05,0,0)" xlink:href="#U"/><use transform="matrix(0.05,0,0,0.05,10,0)" xlink:href="#n"/><use transform="matrix(0.05,0,0,0.05,20,0)" xlink:href="#A"/><use transform="matrix(0.05,0,0,0.05,30,0)" xlink:href="#R"/></g><path d="M24-248c120-7 223 5 221 122C244-46 201 0 124 0H24v-248zM76-40c74 7 117-18 117-86 0-67-45-88-117-82v168" id="V"/><g id="h"><use transform="matrix(0.05,0,0,0.05,0,0)" xlink:href="#V"/><use transform="matrix(0.05,0,0,0.05,12.950000000000001,0)" xlink:href="#o"/><use transform="matrix(0.05,0,0,0.05,19.950000000000003,0)" xlink:href="#A"/><use transform="matrix(0.05,0,0,0.05,29.950000000000003,0)" xlink:href="#C"/><use transform="matrix(0.05,0,0,0.05,40.900000000000006,0)" xlink:href="#n"/><use transform="matrix(0.05,0,0,0.05,50.900000000000006,0)" xlink:href="#A"/><use transform="matrix(0.05,0,0,0.05,60.900000000000006,0)" xlink:href="#P"/></g><path d="M185-189c-5-48-123-54-124 2 14 75 158 14 163 119 3 78-121 87-175 55-17-10-28-26-33-46l33-7c5 56 141 63 141-1 0-78-155-14-162-118-5-82 145-84 179-34 5 7 8 16 11 25" id="W"/><path d="M141-36C126-15 110 5 73 4 37 3 15-17 15-53c-1-64 63-63 125-63 3-35-9-54-41-54-24 1-41 7-42 31l-33-3c5-37 33-52 76-52 45 0 72 20 72 64v82c-1 20 7 32 28 27v20c-31 9-61-2-59-35zM48-53c0 20 12 33 32 33 41-3 63-29 60-74-43 2-92-5-92 41" id="X"/><path d="M114-163C36-179 61-72 57 0H25l-1-190h30c1 12-1 29 2 39 6-27 23-49 58-41v29" id="Y"/><g id="i"><use transform="matrix(0.05,0,0,0.05,0,0)" xlink:href="#W"/><use transform="matrix(0.05,0,0,0.05,12,0)" xlink:href="#O"/><use transform="matrix(0.05,0,0,0.05,22,0)" xlink:href="#X"/><use transform="matrix(0.05,0,0,0.05,32,0)" xlink:href="#Y"/><use transform="matrix(0.05,0,0,0.05,37.95,0)" xlink:href="#I"/><use transform="matrix(0.05,0,0,0.05,47.95,0)" xlink:href="#L"/></g><path d="M160-131c35 5 61 23 61 61C221 17 115-2 30 0v-248c76 3 177-17 177 60 0 33-19 50-47 57zm-97-11c50-1 110 9 110-42 0-47-63-36-110-37v79zm0 115c55-2 124 14 124-45 0-56-70-42-124-44v89" id="Z"/><path d="M84 4C-5 8 30-112 23-190h32v120c0 31 7 50 39 49 72-2 45-101 50-169h31l1 190h-30c-1-10 1-25-2-33-11 22-28 36-60 37" id="aa"/><path d="M24 0v-261h32V0H24" id="ab"/><path d="M85-194c31 0 48 13 60 33l-1-100h32l1 261h-30c-2-10 0-23-3-31C134-8 116 4 85 4 32 4 16-35 15-94c0-66 23-100 70-100zm9 24c-40 0-46 34-46 75 0 40 6 74 45 74 42 0 51-32 51-76 0-42-9-74-50-73" id="ac"/><path d="M177-190C167-65 218 103 67 71c-23-6-38-20-44-43l32-5c15 47 100 32 89-28v-30C133-14 115 1 83 1 29 1 15-40 15-95c0-56 16-97 71-98 29-1 48 16 59 35 1-10 0-23 2-32h30zM94-22c36 0 50-32 50-73 0-42-14-75-50-75-39 0-46 34-46 75s6 73 46 73" id="ad"/><g id="j"><use transform="matrix(0.05,0,0,0.05,0,0)" xlink:href="#Z"/><use transform="matrix(0.05,0,0,0.05,12,0)" xlink:href="#aa"/><use transform="matrix(0.05,0,0,0.05,22,0)" xlink:href="#N"/><use transform="matrix(0.05,0,0,0.05,25.950000000000003,0)" xlink:href="#ab"/><use transform="matrix(0.05,0,0,0.05,29.899999999999995,0)" xlink:href="#ac"/><use transform="matrix(0.05,0,0,0.05,39.9,0)" xlink:href="#N"/><use transform="matrix(0.05,0,0,0.05,43.85,0)" xlink:href="#H"/><use transform="matrix(0.05,0,0,0.05,53.85,0)" xlink:href="#ad"/></g><g id="k"><use transform="matrix(0.05,0,0,0.05,0,0)" xlink:href="#M"/><use transform="matrix(0.05,0,0,0.05,16.95,0)" xlink:href="#N"/><use transform="matrix(0.05,0,0,0.05,20.9,0)" xlink:href="#K"/><use transform="matrix(0.05,0,0,0.05,25.899999999999995,0)" xlink:href="#O"/></g></defs></g></svg>